<?xml version="1.0" encoding="UTF-8" standalone="no"?>
<!-- Created with Inkscape (http://www.inkscape.org/) -->

<svg
   xmlns:dc="http://purl.org/dc/elements/1.1/"
   xmlns:cc="http://creativecommons.org/ns#"
   xmlns:rdf="http://www.w3.org/1999/02/22-rdf-syntax-ns#"
   xmlns:svg="http://www.w3.org/2000/svg"
   xmlns="http://www.w3.org/2000/svg"
   xmlns:sodipodi="http://sodipodi.sourceforge.net/DTD/sodipodi-0.dtd"
   xmlns:inkscape="http://www.inkscape.org/namespaces/inkscape"
   width="48"
   height="48"
   viewBox="0 0 12.7 12.7"
   version="1.1"
   id="svg8"
   inkscape:version="0.92.3 (2405546, 2018-03-11)"
   sodipodi:docname="dog.svg">
  <defs
     id="defs2">
    <inkscape:path-effect
       effect="bspline"
       id="path-effect5241"
       is_visible="true"
       weight="33.333333"
       steps="2"
       helper_size="0"
       apply_no_weight="true"
       apply_with_weight="true"
       only_selected="false" />
    <inkscape:path-effect
       effect="bspline"
       id="path-effect5233"
       is_visible="true"
       weight="33.333333"
       steps="2"
       helper_size="0"
       apply_no_weight="true"
       apply_with_weight="true"
       only_selected="false" />
    <inkscape:path-effect
       effect="bspline"
       id="path-effect5215"
       is_visible="true"
       weight="33.333333"
       steps="2"
       helper_size="0"
       apply_no_weight="true"
       apply_with_weight="true"
       only_selected="false" />
    <inkscape:path-effect
       effect="bspline"
       id="path-effect5207"
       is_visible="true"
       weight="33.333333"
       steps="2"
       helper_size="0"
       apply_no_weight="true"
       apply_with_weight="true"
       only_selected="false" />
    <inkscape:path-effect
       effect="bspline"
       id="path-effect5099"
       is_visible="true"
       weight="33.333333"
       steps="2"
       helper_size="0"
       apply_no_weight="true"
       apply_with_weight="true"
       only_selected="false" />
    <inkscape:path-effect
       effect="bspline"
       id="path-effect5087"
       is_visible="true"
       weight="33.333333"
       steps="2"
       helper_size="0"
       apply_no_weight="true"
       apply_with_weight="true"
       only_selected="false" />
    <inkscape:path-effect
       effect="bspline"
       id="path-effect5077"
       is_visible="true"
       weight="33.333333"
       steps="2"
       helper_size="0"
       apply_no_weight="true"
       apply_with_weight="true"
       only_selected="false" />
    <inkscape:path-effect
       effect="bspline"
       id="path-effect5041"
       is_visible="true"
       weight="33.333333"
       steps="2"
       helper_size="0"
       apply_no_weight="true"
       apply_with_weight="true"
       only_selected="false" />
    <inkscape:path-effect
       effect="bspline"
       id="path-effect5037"
       is_visible="true"
       weight="33.333333"
       steps="2"
       helper_size="0"
       apply_no_weight="true"
       apply_with_weight="true"
       only_selected="false" />
    <inkscape:path-effect
       effect="bspline"
       id="path-effect3904"
       is_visible="true"
       weight="33.333333"
       steps="2"
       helper_size="0"
       apply_no_weight="true"
       apply_with_weight="true"
       only_selected="false" />
    <inkscape:path-effect
       effect="bspline"
       id="path-effect3900"
       is_visible="true"
       weight="33.333333"
       steps="2"
       helper_size="0"
       apply_no_weight="true"
       apply_with_weight="true"
       only_selected="false" />
    <inkscape:path-effect
       effect="bspline"
       id="path-effect3892"
       is_visible="true"
       weight="33.333333"
       steps="2"
       helper_size="0"
       apply_no_weight="true"
       apply_with_weight="true"
       only_selected="false" />
    <inkscape:path-effect
       effect="bspline"
       id="path-effect3888"
       is_visible="true"
       weight="33.333333"
       steps="2"
       helper_size="0"
       apply_no_weight="true"
       apply_with_weight="true"
       only_selected="false" />
    <inkscape:path-effect
       effect="bspline"
       id="path-effect3884"
       is_visible="true"
       weight="33.333333"
       steps="2"
       helper_size="0"
       apply_no_weight="true"
       apply_with_weight="true"
       only_selected="false" />
    <inkscape:path-effect
       effect="bspline"
       id="path-effect3860"
       is_visible="true"
       weight="33.333333"
       steps="2"
       helper_size="0"
       apply_no_weight="true"
       apply_with_weight="true"
       only_selected="false" />
    <inkscape:path-effect
       effect="bspline"
       id="path-effect3852"
       is_visible="true"
       weight="33.333333"
       steps="2"
       helper_size="0"
       apply_no_weight="true"
       apply_with_weight="true"
       only_selected="false" />
    <inkscape:path-effect
       effect="bspline"
       id="path-effect3848"
       is_visible="true"
       weight="33.333333"
       steps="2"
       helper_size="0"
       apply_no_weight="true"
       apply_with_weight="true"
       only_selected="false" />
    <inkscape:path-effect
       effect="bspline"
       id="path-effect3844"
       is_visible="true"
       weight="33.333333"
       steps="2"
       helper_size="0"
       apply_no_weight="true"
       apply_with_weight="true"
       only_selected="false" />
    <inkscape:path-effect
       effect="spiro"
       id="path-effect3836"
       is_visible="true" />
    <inkscape:path-effect
       effect="spiro"
       id="path-effect3824"
       is_visible="true" />
  </defs>
  <sodipodi:namedview
     id="base"
     pagecolor="#ffffff"
     bordercolor="#666666"
     borderopacity="1.0"
     inkscape:pageopacity="0.0"
     inkscape:pageshadow="2"
     inkscape:zoom="15.839192"
     inkscape:cx="13.282022"
     inkscape:cy="21.437093"
     inkscape:document-units="mm"
     inkscape:current-layer="layer2"
     showgrid="true"
     units="px"
     showguides="false"
     inkscape:window-width="1920"
     inkscape:window-height="1017"
     inkscape:window-x="-8"
     inkscape:window-y="-8"
     inkscape:window-maximized="1">
    <inkscape:grid
       type="xygrid"
       id="grid3736" />
  </sodipodi:namedview>
  <metadata
     id="metadata5">
    <rdf:RDF>
      <cc:Work
         rdf:about="">
        <dc:format>image/svg+xml</dc:format>
        <dc:type
           rdf:resource="http://purl.org/dc/dcmitype/StillImage" />
        <dc:title></dc:title>
      </cc:Work>
    </rdf:RDF>
  </metadata>
  <g
     inkscape:label="Layer 1"
     inkscape:groupmode="layer"
     id="layer1"
     transform="translate(0,-284.29998)"
     style="display:none" />
  <g
     inkscape:groupmode="layer"
     id="layer5"
     inkscape:label="background">
    <rect
       style="fill:#c83737;fill-opacity:1;stroke-width:0.26458332"
       id="rect5336"
       width="18.25625"
       height="18.25625"
       x="-2.1166666"
       y="-1.5875" />
  </g>
  <g
     inkscape:groupmode="layer"
     id="layer2"
     inkscape:label="outline"
     transform="translate(0,-284.29998)"
     style="display:inline">
    <path
       style="fill:none;stroke:#000000;stroke-width:0.26458332px;stroke-linecap:butt;stroke-linejoin:miter;stroke-opacity:1"
       d="m 2.0656987,292.31381 c 0.032941,-0.42824 0.2326935,-0.84146 0.5478274,-1.13329 0.3151338,-0.29182 0.7424638,-0.45929 1.1719642,-0.45929 0.4295005,0 0.8568305,0.16747 1.1719643,0.45929 0.3151339,0.29183 0.5148866,0.70505 0.5478274,1.13329 0.034633,0.45024 -0.1162937,0.91197 -0.4101722,1.25482 -0.2938785,0.34286 -0.727089,0.56263 -1.1773295,0.59726 -0.4502404,0.0346 -0.9119656,-0.11629 -1.2548231,-0.41017 -0.3428576,-0.29388 -0.5626251,-0.72709 -0.5972585,-1.17733 -0.00677,-0.088 -0.00677,-0.17656 0,-0.26458 z"
       id="path3822"
       inkscape:connector-curvature="0"
       inkscape:original-d="m 2.0656987,292.31381 c -2.646e-4,-0.0879 2.2933202,-2.7e-4 3.4395833,0 1.1462631,2.6e-4 -2.292791,0.17612 -3.4395833,0.26458 -1.14679233,0.0885 2.646e-4,-0.17665 0,-0.26458 z"
       inkscape:path-effect="#path-effect3824" />
    <path
       style="fill:none;stroke:#000000;stroke-width:0.26458332px;stroke-linecap:butt;stroke-linejoin:miter;stroke-opacity:1"
       d="m 6.5636153,292.84297 c 0.6926767,0 1.381088,-0.28515 1.8708843,-0.77495 0.4897964,-0.48979 0.7749457,-1.1782 0.7749457,-1.87088 0,-0.69268 -0.2851493,-1.38109 -0.7749457,-1.87088 -0.4897963,-0.4898 -1.1782076,-0.77495 -1.8708843,-0.77495 -0.6926767,0 -1.381088,0.28515 -1.8708843,0.77495 -0.4897964,0.48979 -0.7749457,1.1782 -0.7749457,1.87088 0,0.69268 0.2851493,1.38109 0.7749457,1.87088 0.4897963,0.4898 1.1782076,0.77495 1.8708843,0.77495 z"
       id="path3834"
       inkscape:connector-curvature="0"
       inkscape:original-d="m 6.5636153,292.84297 c -2.646e-4,1.76416 2.646e-4,-3.52804 0,-5.29166 -2.646e-4,-1.76363 2.646e-4,3.52751 0,5.29166 z"
       inkscape:path-effect="#path-effect3836" />
    <path
       style="fill:none;stroke:#000000;stroke-width:0.26458332px;stroke-linecap:butt;stroke-linejoin:miter;stroke-opacity:1"
       d="m 6.5636153,290.19714 c -0.088134,0.44067 -0.1763274,0.88164 -0.043964,1.36702 0.1323631,0.48537 0.4848965,1.01417 0.5731466,1.58734 0.08825,0.57317 -0.088119,1.19046 -0.043867,1.4993 0.044251,0.30884 0.3086999,0.30884 0.5730714,-0.0878 0.2643715,-0.39663 0.5292183,-1.19117 0.5357581,-1.79739 0.00654,-0.60622 -0.2712737,-1.06924 -0.5358109,-1.51014"
       id="path3842"
       inkscape:connector-curvature="0"
       inkscape:path-effect="#path-effect3844"
       inkscape:original-d="m 6.5636153,290.19714 c -0.08793,0.44071 -0.1761244,0.88168 -0.2645833,1.32292 0.3532865,0.52927 0.7058202,1.05807 1.0583333,1.5875 -0.1761448,0.61716 -0.3525131,1.23445 -0.5291667,1.85208 0.2649826,-2.6e-4 0.5294313,-2.6e-4 0.79375,0 0.2645834,-0.79322 0.5294313,-1.58776 0.79375,-2.38125 -0.2579158,-0.41509 -0.5289021,-0.88221 -0.79375,-1.32292" />
    <path
       style="fill:none;stroke:#000000;stroke-width:0.26458332px;stroke-linecap:butt;stroke-linejoin:miter;stroke-opacity:1"
       d="m 7.886532,288.60964 c -0.089804,0.53882 -0.1763391,1.05803 0.046762,1.67907 0.2231008,0.62103 0.746957,1.3195 1.1439878,1.6723 0.3970308,0.3528 0.6615978,0.3528 0.7056957,0.66102 0.044098,0.30821 -0.1324651,0.92618 -0.088214,1.23502 0.044251,0.30884 0.3086997,0.30884 0.5289997,-0.0878 0.2203,-0.39663 0.396864,-1.19117 0.264728,-1.63196 -0.132136,-0.44078 -0.5732837,-0.52901 -0.8380032,-0.92618 -0.2647196,-0.39717 -0.3528734,-1.1024 -0.4410392,-1.80773"
       id="path3846"
       inkscape:connector-curvature="0"
       inkscape:path-effect="#path-effect3848"
       inkscape:original-d="m 7.886532,288.60964 c -0.097379,0.53756 -0.1761244,1.05807 -0.2645834,1.5875 0.5226405,0.72145 1.0585979,1.41085 1.5875,2.11667 0.2648638,-2.7e-4 0.5294308,-2.7e-4 0.7937494,0 -0.1759479,0.61648 -0.3525126,1.23445 -0.5291656,1.85208 0.264982,-2.6e-4 0.5294306,-2.6e-4 0.7937496,0 0.176477,-0.79322 0.353042,-1.58776 0.529166,-2.38125 -0.440536,-0.0884 -0.8816799,-0.17665 -1.3229156,-0.26458 -0.087971,-0.70615 -0.1761249,-1.41138 -0.2645838,-2.11667" />
    <path
       style="fill:none;stroke:#000000;stroke-width:0.26458332px;stroke-linecap:butt;stroke-linejoin:miter;stroke-opacity:1"
       d="m 4.711532,294.16589 c -0.088033,0.17607 -0.176228,0.35246 -0.087744,0.44081 0.088484,0.0884 0.3525915,0.0884 0.6169786,-0.22017 0.2643871,-0.30853 0.5292347,-0.92651 0.7936816,-1.54356"
       id="path3850"
       inkscape:connector-curvature="0"
       inkscape:path-effect="#path-effect3852"
       inkscape:original-d="m 4.711532,294.16589 c -0.08793,0.17612 -0.1761244,0.35251 -0.2645833,0.52917 0.2653241,-2.7e-4 0.5294312,-2.7e-4 0.79375,0 0.2645833,-0.61701 0.5294312,-1.23499 0.7937499,-1.85209" />
    <path
       style="fill:none;stroke:#000000;stroke-width:0.26458332px;stroke-linecap:butt;stroke-linejoin:miter;stroke-opacity:1"
       d="m 7.886532,287.81589 c 0.2782141,0.0927 0.5293247,0.17644 0.7423349,0.22051 0.2130101,0.0441 0.4044573,0.0441 0.5298128,0.007 0.1253556,-0.0373 0.227422,-0.13936 0.3096221,-0.2598 0.0822,-0.12043 0.1822761,-0.32058 0.2262949,-0.49679 0.044019,-0.1762 0.044019,-0.35291 0.088184,-0.44097 0.044165,-0.0881 0.1324877,-0.0881 0.2175656,-0.006 0.08508,0.0822 0.179189,0.27045 0.223312,0.44681 0.04412,0.17636 0.04412,0.35265 0.0024,0.52441 -0.04172,0.17176 -0.13451,0.35735 -0.222786,0.5339 -0.088275,0.17655 -0.1763102,0.35262 -0.3528588,0.48509 -0.1765486,0.13248 -0.4406535,0.22052 -0.7055539,0.30882"
       id="path3858"
       inkscape:connector-curvature="0"
       inkscape:path-effect="#path-effect3860"
       inkscape:original-d="m 7.886532,287.81589 c 0.2766597,0.0974 0.5294312,0.17612 0.79375,0.26458 0.161595,0.001 0.3530422,-2.6e-4 0.5291666,0 0.091472,-0.0577 0.1766536,-0.17665 0.2645838,-0.26458 0.06621,-0.15807 0.176653,-0.35304 0.264583,-0.52917 2.64e-4,-0.17633 2.64e-4,-0.35304 0,-0.52916 0.08833,-2.7e-4 0.1766527,-2.7e-4 0.2645826,0 0.07092,0.1701 0.176654,0.35251 0.264584,0.52916 2.64e-4,0.17623 2.64e-4,0.35252 0,0.52917 -0.05652,0.18033 -0.176125,0.35251 -0.264584,0.52917 -0.08809,0.17644 -0.1761239,0.35251 -0.2645826,0.52916 -0.264795,0.0881 -0.5289022,0.17613 -0.7937501,0.26459" />
    <path
       style="fill:none;stroke:#000000;stroke-width:0.26458332px;stroke-linecap:butt;stroke-linejoin:miter;stroke-opacity:1"
       d="m 4.711532,294.43047 c 0,-0.1861 0,-0.35304 0,-0.52916"
       id="path3882"
       inkscape:connector-curvature="0"
       inkscape:path-effect="#path-effect3884"
       inkscape:original-d="m 4.711532,294.43047 c 0.043574,-0.1861 2.646e-4,-0.35304 0,-0.52916" />
    <path
       style="fill:none;stroke:#000000;stroke-width:0.26458332px;stroke-linecap:butt;stroke-linejoin:miter;stroke-opacity:1"
       d="m 9.2094486,289.66797 c 0,-0.17665 0,-0.35304 0,-0.52916"
       id="path3886"
       inkscape:connector-curvature="0"
       inkscape:path-effect="#path-effect3888"
       inkscape:original-d="m 9.2094486,289.66797 c 2.646e-4,-0.17665 2.646e-4,-0.35304 0,-0.52916" />
    <path
       style="fill:none;stroke:#000000;stroke-width:0.26458332px;stroke-linecap:butt;stroke-linejoin:miter;stroke-opacity:1"
       d="m 8.1511153,287.81589 c -0.189511,0 -0.3525131,0 -0.5291667,0"
       id="path3890"
       inkscape:connector-curvature="0"
       inkscape:path-effect="#path-effect3892"
       inkscape:original-d="m 8.1511153,287.81589 c -0.189511,-0.005 -0.3525131,-2.6e-4 -0.5291667,0" />
    <path
       style="fill:none;stroke:#000000;stroke-width:0.26458332px;stroke-linecap:butt;stroke-linejoin:miter;stroke-opacity:1"
       d="m 2.8594487,290.99089 c -0.080532,-0.16106 -0.17644,-0.35288 -0.2205116,-0.54386 -0.044072,-0.19097 -0.044072,-0.33835 -0.044072,-0.47056 0,-0.13221 0,-0.22057 -0.1317844,-0.0888 -0.1317843,0.13175 -0.3971574,0.48558 -0.5295615,0.76129 -0.1324041,0.27571 -0.1324041,0.42988 -0.088267,0.60648 0.044137,0.1766 0.1322009,0.35273 0.2204464,0.52922"
       id="path3898"
       inkscape:connector-curvature="0"
       inkscape:path-effect="#path-effect3900"
       inkscape:original-d="m 2.8594487,290.99089 c -0.1186405,-0.14201 -0.1761244,-0.35304 -0.2645833,-0.52917 -0.034362,-0.20566 2.645e-4,-0.35304 0,-0.52916 2.645e-4,-0.0883 2.645e-4,-0.17666 0,-0.26459 -0.263525,0.35146 -0.5289021,0.70529 -0.79375,1.05834 0.021544,0.19834 2.646e-4,0.35251 0,0.52916 0.088591,0.17639 0.1766534,0.35252 0.2645833,0.52917" />
    <path
       style="fill:none;stroke:#000000;stroke-width:0.26458332px;stroke-linecap:butt;stroke-linejoin:miter;stroke-opacity:1"
       d="m 4.711532,290.99089 c 0.1719803,-0.086 0.3530947,-0.17655 0.4411307,-0.31423 0.088036,-0.13769 0.088036,-0.3034 0.088036,-0.48555 0,-0.18215 0,-0.34701 0.061461,-0.43508 0.061461,-0.0881 0.1151923,-0.0881 0.2081204,0.01 0.092928,0.0979 0.1713395,0.25475 0.2595621,0.51939 0.088223,0.26465 0.1763654,0.61722 0.1323766,0.88181 -0.043989,0.26459 -0.2202858,0.44089 -0.396937,0.61754"
       id="path3902"
       inkscape:connector-curvature="0"
       inkscape:original-d="m 4.711532,290.99089 c 0.1498801,-0.13019 0.3530423,-0.17665 0.5291667,-0.26458 0.024633,-0.18734 2.645e-4,-0.35305 0,-0.52917 0.00891,-0.18818 2.645e-4,-0.35304 0,-0.52917 0.1229225,0.0312 0.1766535,-2.6e-4 0.2645833,0 0.081914,0.20386 0.1766535,0.35252 0.2645833,0.52917 0.088512,0.35272 0.1766536,0.70529 0.2645833,1.05833 -0.1762177,0.17622 -0.3525131,0.35252 -0.5291666,0.52917"
       inkscape:path-effect="#path-effect3904" />
    <path
       style="fill:#784421;stroke-width:0.01181176"
       d="m 9.8722831,286.60025 c -0.1418485,-0.002 -0.2487954,0.11762 -0.277576,0.24837 -0.051652,0.21395 -0.065812,0.44001 -0.1677869,0.63945 -0.078591,0.14673 -0.1622401,0.3201 -0.3274763,0.38277 -0.3067072,0.0527 -0.6098188,-0.053 -0.9000697,-0.14133 0.020359,-0.0793 -0.05993,-0.10809 -0.1237927,-0.0926 -0.1160838,-0.008 -0.2389703,0.017 -0.3504052,-0.0139 -0.7900109,-0.35836 -1.7465209,-0.32698 -2.5065939,0.0941 -0.5704755,0.29872 -1.0181743,0.80924 -1.2620799,1.40314 -0.1879611,0.44594 -0.2563482,0.94084 -0.1980256,1.42115 -0.2795476,0.0105 -0.566288,0.0711 -0.8184486,0.20025 -0.1022228,-0.20115 -0.1600845,-0.4289 -0.1601483,-0.657 -0.014671,-0.12291 0.013885,-0.26718 -0.06649,-0.37194 -0.094563,-0.10421 -0.2644378,-0.0754 -0.3510767,0.0243 -0.2413563,0.2438 -0.4348681,0.53352 -0.5922026,0.83748 -0.1213207,0.2361 -0.1670701,0.51623 -0.08612,0.77291 0.054061,0.1821 0.1342602,0.35879 0.2307067,0.52084 0.074609,0.0114 0.038823,0.0576 0.025094,0.11712 -0.070162,0.25613 -0.064098,0.52777 -0.031783,0.78924 0.099629,0.52758 0.4197098,1.01297 0.8811886,1.29197 0.5011762,0.31291 1.1501544,0.36601 1.6983321,0.14908 -0.07066,0.15315 -0.1292151,0.35786 -0.00399,0.50018 0.1413582,0.1639 0.3921025,0.1393 0.5678178,0.0493 0.3292232,-0.16499 0.5119433,-0.50678 0.6775193,-0.81858 0.1630111,-0.30948 0.29161,-0.63549 0.4449204,-0.9494 0.2338949,0.0276 0.4701691,0.0314 0.7045759,0.008 0.074143,0.27054 0.048802,0.55667 0.041821,0.8315 -0.014613,0.29397 -0.083862,0.59532 -0.039768,0.89181 0.033916,0.17633 0.1879923,0.34469 0.3799141,0.32194 0.2363804,-0.0251 0.4003707,-0.22807 0.5238697,-0.41242 0.2722298,-0.43759 0.4297818,-0.93933 0.514794,-1.44521 0.042272,-0.25597 0.050738,-0.51998 0.015952,-0.77572 0.1739678,-0.14303 0.333869,-0.30381 0.4749851,-0.47948 0.1894736,0.1922 0.4063769,0.35345 0.6336821,0.49796 0.083754,0.0568 0.1899472,0.12679 0.1798523,0.2429 0.00832,0.36995 -0.1042855,0.73465 -0.085899,1.10802 -0.018637,0.1892 0.082092,0.40547 0.2751873,0.4596 0.202673,0.0534 0.3898269,-0.0978 0.5005919,-0.25301 0.205471,-0.29785 0.304606,-0.65473 0.375023,-1.00568 0.0585,-0.34915 0.08306,-0.72847 -0.07117,-1.05738 -0.160752,-0.32998 -0.524182,-0.48085 -0.7479819,-0.7584 -0.202378,-0.25703 -0.2621376,-0.59043 -0.3286382,-0.90248 -0.065359,-0.36323 -0.1330966,-0.72719 -0.1282251,-1.09763 0.2742433,-0.10315 0.5245803,-0.28642 0.6670942,-0.54691 0.124716,-0.23676 0.252905,-0.47565 0.330976,-0.73261 0.05417,-0.20612 0.05099,-0.42606 0.01209,-0.6344 -0.0665,-0.22733 -0.157763,-0.47661 -0.365126,-0.61227 -0.0496,-0.0295 -0.1070959,-0.047 -0.1651109,-0.0447 z m 0.05511,0.4449 c 0.1376799,0.23323 0.1973089,0.52308 0.1022339,0.7835 -0.0859,0.24177 -0.1948589,0.4816 -0.3397515,0.6965 -0.1425916,0.2077 -0.3943548,0.30324 -0.6179118,0.37583 -0.1292895,-0.25673 -0.3046542,-0.4883 -0.5048835,-0.69378 0.2167303,0.0408 0.4478483,0.0649 0.6625196,0.002 0.2965111,-0.10915 0.4568534,-0.40932 0.5739673,-0.68318 0.06611,-0.15549 0.09024,-0.32367 0.119074,-0.48888 z m -3.3564073,0.68893 c 0.3496588,0.002 0.6962984,0.0774 1.014173,0.22671 0.088962,0.0485 0.1873615,0.0819 0.2713847,0.14155 0.5902936,0.3598 1.0101683,0.97837 1.1294322,1.65706 0.096907,0.53109 0.014962,1.09496 -0.2420189,1.57436 -0.2950512,-0.40433 -0.5835158,-0.83342 -0.705413,-1.32568 -0.1082776,-0.42912 -0.055553,-0.87946 0.016294,-1.31782 0.019976,-0.0556 -0.011132,-0.12027 -0.076837,-0.11373 -0.081944,-0.007 -0.1637115,-0.0446 -0.2456101,-0.0312 -0.053319,0.0694 -0.036493,0.16989 -0.059474,0.25257 -0.072549,0.45346 -0.091994,0.92755 0.032983,1.37373 0.1678585,0.54589 0.4767789,1.03742 0.8301051,1.48176 0.015076,0.0325 -0.042645,0.063 -0.058067,0.0933 -0.084524,0.0964 -0.1712656,0.19117 -0.263988,0.27982 -0.107405,-0.30205 -0.2675882,-0.58102 -0.4311754,-0.85541 -0.061231,-0.0629 -0.134952,0.0262 -0.1947455,0.0486 -0.050082,0.0288 -0.138798,0.0651 -0.1044241,0.13887 0.1106913,0.21962 0.2422726,0.42588 0.3359216,0.6542 0.034617,0.0806 0.067294,0.1663 0.088379,0.2494 -0.2408354,0.14682 -0.5072361,0.27152 -0.7790915,0.32787 -0.1379733,-0.35396 -0.3160919,-0.69281 -0.4275765,-1.05678 -0.1251807,-0.40497 -0.050059,-0.82393 0.023254,-1.23082 0.017494,-0.0576 2.645e-4,-0.13352 -0.072209,-0.1348 -0.075988,-0.0112 -0.1561875,-0.0509 -0.2320827,-0.0296 -0.061507,0.0712 -0.054011,0.1789 -0.079839,0.26606 -0.061626,0.31335 -0.083492,0.63729 -0.046343,0.95494 0.068038,0.45705 0.3029447,0.86434 0.4655394,1.28992 -0.2289863,0.006 -0.4616948,0.0174 -0.6863011,-0.0413 -0.1292249,-0.0277 -0.2585892,-0.0586 -0.3815554,-0.1079 -0.00132,-0.19585 -0.024051,-0.39195 -0.075923,-0.58106 0.092529,-0.0647 0.1655845,-0.16157 0.2396474,-0.24881 0.1731306,-0.20842 0.2643598,-0.48298 0.2346481,-0.75373 -0.040169,-0.38 -0.1447593,-0.75702 -0.3234565,-1.09559 -0.083616,-0.14455 -0.2077361,-0.31377 -0.3944104,-0.3052 -0.1681782,0.009 -0.2661219,0.18559 -0.2905168,0.33499 -0.048131,0.22311 0.0079,0.45796 -0.058737,0.67739 -0.050355,0.13067 -0.189688,0.18954 -0.3013382,0.25723 -0.1852043,-0.1 -0.3863467,-0.16711 -0.5905185,-0.21442 -0.043672,-0.24923 -0.034177,-0.50916 -0.00116,-0.75763 0.1178337,-0.70844 0.5459835,-1.36588 1.170125,-1.72892 0.3857287,-0.2263 0.8277477,-0.35155 1.2709173,-0.34993 z m -1.1322905,2.23817 c 0.1491922,0.27249 0.232714,0.57845 0.2812897,0.88437 0.032145,0.19317 0.00225,0.40856 -0.1289365,0.56349 -0.037888,0.0492 -0.078155,0.0967 -0.120886,0.14186 -0.1039082,-0.20889 -0.2619171,-0.38388 -0.4260075,-0.54715 0.1711751,-0.11221 0.3298756,-0.27541 0.3525531,-0.48855 0.029322,-0.18656 0.0229,-0.37534 0.03675,-0.56247 z m -3.0155967,0.25635 c 0.016439,0.24657 0.1042226,0.48162 0.2046756,0.70508 -0.2026473,0.1522 -0.371757,0.35677 -0.4973164,0.56955 -0.079193,-0.18994 -0.1787975,-0.40402 -0.098361,-0.61203 0.084905,-0.24461 0.2350781,-0.46448 0.390633,-0.6733 z m 6.8893218,0.68873 c 0.08581,0.23946 0.2080297,0.47266 0.4047758,0.63974 0.1610269,0.15757 0.3579568,0.27347 0.5020308,0.44775 0.09119,0.12166 0.131822,0.27474 0.12389,0.42272 0.0088,0.25374 -0.01615,0.50829 -0.08802,0.75232 -0.06162,0.21279 -0.131652,0.42725 -0.2630879,0.60957 -0.03174,0.0315 -0.07041,0.084 -0.105337,0.0951 -0.03737,-0.18139 0.0048,-0.37122 0.02097,-0.55275 0.02855,-0.26373 0.09255,-0.53314 0.04065,-0.79778 -0.0478,-0.22645 -0.256591,-0.35731 -0.4362614,-0.47445 -0.1890376,-0.11882 -0.3592655,-0.26568 -0.5103632,-0.4297 0.1249542,-0.23664 0.231534,-0.48417 0.2997462,-0.74341 0.00367,0.0103 0.00734,0.0206 0.011004,0.0309 z m -5.5249256,-0.0143 c 0.063471,-0.017 0.050981,0.0684 0.072078,0.10541 0.2157222,0.73042 0.743055,1.36284 1.4220862,1.70528 0.045566,0.0211 -0.00597,0.0812 -0.00334,0.11689 -0.1264793,0.51354 -0.5393179,0.93809 -1.0446488,1.08944 -0.2163254,0.071 -0.4463602,0.0799 -0.671124,0.054 -0.4157261,-0.0681 -0.8075864,-0.29775 -1.0435109,-0.65211 -0.1982136,-0.2881 -0.3002502,-0.64207 -0.2679811,-0.98882 0.033297,-0.71507 0.6461043,-1.35312 1.3622917,-1.41773 0.057876,-0.006 0.1159407,-0.0112 0.1741543,-0.0123 z m 0.4514075,0.0707 c 0.5326776,0.15909 0.9581218,0.62642 1.0595816,1.17398 0.011679,0.0583 0.019722,0.11736 0.025739,0.17653 -0.4607425,-0.26809 -0.8267547,-0.68462 -1.0286437,-1.17734 -0.025323,-0.0584 -0.050061,-0.11711 -0.070703,-0.17735 l 0.011322,0.003 z m 3.7366675,1.67475 c 0.00502,0.39548 -0.073802,0.78586 -0.2015152,1.15806 -0.1044069,0.28885 -0.2217213,0.59029 -0.4342894,0.81608 -0.026809,0.0209 -0.063638,0.0652 -0.095279,0.0602 -0.040379,-0.16947 -0.00415,-0.347 0.00537,-0.51855 0.042878,-0.4017 0.08304,-0.81306 -0.010702,-1.21102 0.011726,-0.0342 0.082904,-0.0288 0.1189048,-0.0472 0.21438,-0.0652 0.423132,-0.15143 0.617369,-0.26351 z m -2.3247014,0.21981 c 0.051745,0.016 0.102938,0.0338 0.1531607,0.0541 -0.1826265,0.40991 -0.3559932,0.82789 -0.5999771,1.20619 -0.085525,0.12367 -0.1817055,0.25135 -0.3211092,0.31732 0.021463,-0.11852 0.003,-0.24683 0.00914,-0.36909 -0.017904,-0.0672 0.019592,-0.10532 0.073616,-0.13618 0.2456423,-0.19858 0.4459928,-0.4535 0.5670701,-0.74621 0.045901,-0.10596 0.088668,-0.21462 0.1091528,-0.32871 z"
       id="path3948"
       inkscape:connector-curvature="0" />
    <ellipse
       style="fill:#d38d5f;stroke-width:0.26458332"
       id="path5033"
       cx="3.9177821"
       cy="291.78467"
       rx="0.79374999"
       ry="1.0583333" />
    <path
       style="fill:none;stroke:#000000;stroke-width:0.26458332px;stroke-linecap:butt;stroke-linejoin:miter;stroke-opacity:1"
       d="m 2.5948654,291.25547 c 0.2428088,-0.16187 0.5294729,-0.35298 0.8393206,-0.39664 0.3098477,-0.0437 0.6601713,0.0439 0.9709516,0.13281 0.3107804,0.0889 0.5711358,0.17569 0.7450762,0.4284 0.1739403,0.25271 0.2668327,0.71717 0.3109504,1.02449 0.044118,0.30731 0.044118,0.48637 0.044118,0.66303"
       id="path5035"
       inkscape:connector-curvature="0"
       inkscape:path-effect="#path-effect5037"
       inkscape:original-d="m 2.5948654,291.25547 c 0.2392558,-0.1672 0.5294312,-0.35304 0.79375,-0.52916 0.3660065,0.0465 0.7058202,0.17612 1.0583333,0.26458 0.2576245,0.12369 0.5294312,0.17612 0.79375,0.26458 0.1131959,0.41133 0.1766535,0.88168 0.2645833,1.32292 -0.022188,0.17345 2.646e-4,0.35251 0,0.52917" />
    <path
       style="fill:#a05a2c;stroke:#000000;stroke-width:0.26458332px;stroke-linecap:butt;stroke-linejoin:miter;stroke-opacity:1"
       d="m 4.4469487,290.99089 c -0.2370203,-0.079 -0.5290076,-0.17633 -0.574378,-0.22046 -0.04537,-0.0441 0.1336702,-0.0441 0.3097946,-0.0441"
       id="path5039"
       inkscape:connector-curvature="0"
       inkscape:path-effect="#path-effect5041"
       inkscape:original-d="m 4.4469487,290.99089 c -0.2245524,-0.11641 -0.5289021,-0.17665 -0.79375,-0.26458 0.1740016,0.007 0.3530422,-2.7e-4 0.5291666,0" />
    <path
       style="fill:#784421;stroke-width:0.00590588"
       d="m 4.0325011,290.54305 c -0.1047925,0.003 -0.2274999,0.004 -0.3025034,0.0896 -0.015081,0.0182 -0.022939,0.0431 -0.052288,0.0325 -0.1606894,-0.004 -0.3233531,0.008 -0.4765275,0.0596 -0.2575438,0.0815 -0.4884867,0.2277 -0.7089505,0.38049 -0.036883,0.0308 -0.011935,0.0795 0.012674,0.10938 0.038451,0.0526 0.066261,0.11513 0.1131594,0.16024 0.04265,0.0311 0.08248,-0.0177 0.1121736,-0.0441 0.2644872,-0.25197 0.6159698,-0.40038 0.9806162,-0.42261 0.036333,5e-5 0.075726,-0.0109 0.1107987,-0.002 0.019394,0.0203 0.01369,0.0546 0.026844,0.0789 0.00476,0.0434 0.045395,0.0704 0.087525,0.0616 0.08647,-0.002 0.1741197,0.004 0.2598566,-0.003 0.030609,-0.003 0.040637,-0.0372 0.043627,-0.0611 0.1202568,0.0299 0.2342243,0.0861 0.3418843,0.14773 0.1105916,0.0544 0.2240473,0.10475 0.3247847,0.17688 0.2936026,0.20349 0.5069184,0.53067 0.5413042,0.88969 0.024273,0.22307 -0.022574,0.45194 -0.1238292,0.65154 -0.0112,0.0846 -0.00196,0.17142 -0.00498,0.25691 0.00284,0.0516 0.059545,0.0579 0.1001691,0.0529 0.050352,-0.005 0.1265304,0.0193 0.1477121,-0.0434 0.032675,-0.0738 0.045824,-0.15537 0.080656,-0.22779 0.033417,-0.0262 0.045098,-0.0667 0.035043,-0.10738 -0.031311,-0.3886 -0.092488,-0.77839 -0.2237893,-1.14674 -0.067213,-0.1837 -0.1621991,-0.36268 -0.3113389,-0.49311 -0.1726113,-0.15618 -0.3960551,-0.23639 -0.6145342,-0.30482 -0.094758,-0.0475 -0.1982859,-0.0754 -0.2981084,-0.11074 -0.00387,-0.0485 0.018153,-0.12323 -0.043543,-0.14155 -0.038477,-0.005 -0.069663,-0.0292 -0.1063995,-0.0374 -0.017259,-0.002 -0.03468,-0.002 -0.052034,-0.002 z m 0.092994,0.0191 c 0.00294,0.003 -0.00222,-0.002 0,0 z m 0.3922448,0.2678 c 0.00103,9e-4 -9.789e-4,-7.4e-4 0,0 z"
       id="path5047"
       inkscape:connector-curvature="0" />
    <path
       style="fill:none;stroke:#000000;stroke-width:0.26458332px;stroke-linecap:butt;stroke-linejoin:miter;stroke-opacity:1"
       d="m 9.2094486,287.02214 c -0.088089,0.26427 -0.1762824,0.52885 -0.4372159,0.61794 -0.2609335,0.0891 -0.709108,-5.4e-4 -1.0586563,-0.13063 -0.3495483,-0.13009 -0.6207359,-0.31088 -0.8853778,-0.48731"
       id="path5075"
       inkscape:connector-curvature="0"
       inkscape:path-effect="#path-effect5077"
       inkscape:original-d="m 9.2094486,287.02214 c -0.08793,0.26432 -0.1761244,0.5289 -0.2645833,0.79375 -0.4250746,-0.12917 -0.8816798,-0.17665 -1.3229167,-0.26458 -0.277046,-0.14326 -0.528902,-0.35305 -0.79375,-0.52917" />
    <path
       style="fill:#ffffff;stroke-width:0.00590588"
       d="m 6.8728645,286.87214 c -0.053746,0.0583 -0.090051,0.1313 -0.1358741,0.19607 -0.026765,0.0291 -0.039213,0.079 -0.00217,0.10567 0.1457389,0.11127 0.3053744,0.2032 0.4631868,0.29615 0.3477463,0.19679 0.7331151,0.33207 1.1306045,0.37909 0.1392975,0.006 0.2813132,0.0144 0.4188327,-0.0136 0.1974221,-0.039 0.3678823,-0.17341 0.4650463,-0.34785 0.075376,-0.12783 0.1261334,-0.26839 0.1698754,-0.40955 0.00488,-0.0599 -0.063957,-0.0687 -0.1055581,-0.0859 -0.068037,-0.0198 -0.1336355,-0.0539 -0.2042581,-0.0605 -0.053438,0.0218 -0.050232,0.0902 -0.072486,0.13607 -0.050825,0.14358 -0.1101162,0.30381 -0.24995,0.38319 -0.1059408,0.0495 -0.2231978,0.0399 -0.3351803,0.036 -0.2354577,-0.0185 -0.4641874,-0.0832 -0.6842874,-0.16778 -0.2822741,-0.11035 -0.536843,-0.27594 -0.7902101,-0.44034 -0.020398,-0.0152 -0.044323,-0.018 -0.067572,-0.007 z"
       id="path5079"
       inkscape:connector-curvature="0" />
    <path
       style="fill:#d38d5f;stroke:#000000;stroke-width:0.26458332px;stroke-linecap:butt;stroke-linejoin:miter;stroke-opacity:1"
       d="m 5.2406987,291.78464 c -0.1763867,-0.17639 -0.3527755,-0.35278 -0.5291211,-0.48505 -0.1763456,-0.13227 -0.352717,-0.22045 -0.5544902,-0.26458 -0.2017732,-0.0441 -0.5036241,-0.0441 -0.6935571,0.0134 -0.189933,0.0575 -0.2510382,0.11861 -0.3394983,0.20707"
       id="path5085"
       inkscape:connector-curvature="0"
       inkscape:path-effect="#path-effect5087"
       inkscape:original-d="m 5.2406987,291.78464 c -0.1761244,-0.17665 -0.3525131,-0.35304 -0.5291667,-0.52917 -0.1761244,-0.0885 -0.3525131,-0.17665 -0.5291667,-0.26458 -0.2270511,0.004 -0.528902,-2.6e-4 -0.7937499,0 -0.1297946,0.10024 -0.1761244,0.17612 -0.2645834,0.26458" />
    <path
       style="fill:#d38d5f;stroke-width:0.00590588"
       d="m 3.8854015,290.82077 c -0.04838,-0.007 -0.087235,0.0479 -0.059832,0.09 0.021029,0.0442 0.014279,0.11405 0.069763,0.134 0.1003519,6.6e-4 0.202025,0.006 0.3017607,-3.5e-4 0.036602,10e-4 0.035064,-0.0486 0.047874,-0.0614 0.1382299,0.0356 0.2624135,0.10828 0.387827,0.17358 0.047328,0.0266 0.1051335,-0.034 0.073143,-0.0791 -0.046612,-0.0487 -0.1136449,-0.072 -0.171432,-0.10494 -0.2008822,-0.1002 -0.4248163,-0.15125 -0.6491044,-0.1518 z"
       id="path5091"
       inkscape:connector-curvature="0" />
    <path
       style="fill:#784421;stroke:#000000;stroke-width:0.26458332px;stroke-linecap:butt;stroke-linejoin:miter;stroke-opacity:1"
       d="m 3.3886154,290.72631 c 0.3530422,0 0.7058202,0 0.9708935,0.0888 0.2650733,0.0888 0.4402181,0.26395 0.6166532,0.39627 0.1764352,0.13231 0.3528373,0.22052 0.5291199,0.30866"
       id="path5097"
       inkscape:connector-curvature="0"
       inkscape:path-effect="#path-effect5099"
       inkscape:original-d="m 3.3886154,290.72631 c 0.3530422,-2.7e-4 0.7058202,-2.7e-4 1.0583333,0 0.1906846,0.16458 0.3530422,0.35251 0.5291666,0.52916 0.1766536,0.0879 0.3530423,0.17613 0.5291667,0.26459" />
    <path
       style="fill:#784421;stroke-width:0.00590588"
       d="m 3.3612204,290.5508 c -0.044034,0.0373 -0.018664,0.10135 -0.0254,0.1515 0.00374,0.06 -0.00833,0.12212 0.00774,0.18039 0.037013,0.0436 0.1006969,0.0196 0.1505492,0.0272 0.1096896,0.004 0.2194885,-0.007 0.3289112,-0.005 0.1001527,0.0301 0.2073383,0.022 0.3094053,0.0438 0.1647526,0.024 0.3142052,0.10142 0.455839,0.18494 0.1082583,0.0527 0.2200061,0.10042 0.317055,0.17318 0.1094311,0.0744 0.1991257,0.17267 0.2940182,0.26347 0.075483,0.0396 0.1511774,0.0796 0.2286394,0.11535 0.070192,0.0197 0.1148051,-0.0947 0.051826,-0.12998 -0.080562,-0.11512 -0.1532437,-0.23649 -0.2469393,-0.34202 -0.1249495,-0.14992 -0.2870877,-0.26124 -0.4413954,-0.37823 -0.164416,-0.11707 -0.3588673,-0.18293 -0.5515025,-0.23695 -0.2787592,-0.0641 -0.567182,-0.0532 -0.8512011,-0.0553 -0.00918,0.003 -0.018365,0.005 -0.027545,0.008 z"
       id="path5101"
       inkscape:connector-curvature="0" />
    <path
       style="fill:none;stroke:#000000;stroke-width:0.26458332px;stroke-linecap:butt;stroke-linejoin:miter;stroke-opacity:1"
       d="m 7.092782,292.04922 c 0.094018,0.37608 0.1763409,0.70537 0.2645833,1.05834"
       id="path5205"
       inkscape:connector-curvature="0"
       inkscape:path-effect="#path-effect5207"
       inkscape:original-d="m 7.092782,292.04922 c 0.1222811,0.36901 0.1766535,0.70529 0.2645833,1.05834" />
    <path
       style="fill:#d38d5f;stroke:#000000;stroke-width:0.26458332px;stroke-linecap:butt;stroke-linejoin:miter;stroke-opacity:1"
       d="m 7.6219486,292.04922 c 0.081595,0.0816 0.1763896,0.17639 0.1764284,0.39672 3.88e-5,0.22033 -0.088156,0.57311 -0.1764284,0.9262"
       id="path5213"
       inkscape:connector-curvature="0"
       inkscape:path-effect="#path-effect5215"
       inkscape:original-d="m 7.6219486,292.04922 c 0.068391,0.0948 0.1766536,0.17613 0.2645834,0.26459 -0.08793,0.35251 -0.1761244,0.70529 -0.2645834,1.05833" />
    <path
       style="fill:#d38d5f;fill-opacity:1;stroke-width:0.00417609"
       d="m 7.9177279,292.29497 c -0.057667,0.0174 -0.1074777,0.0534 -0.1619901,0.0784 -0.036085,0.0216 -0.079166,0.0334 -0.1103611,0.0617 -0.00914,0.0829 -0.015137,0.16677 -0.028882,0.24937 -1.256e-4,0.0271 -0.017962,0.0545 -0.00816,0.0809 0.021696,0.0299 0.057306,-1.5e-4 0.082577,-0.008 0.080074,-0.0377 0.1628484,-0.0715 0.2384028,-0.11771 0.027728,-0.0311 0.017547,-0.0777 0.023998,-0.1158 0.00587,-0.0704 0.00464,-0.14203 -0.00851,-0.21152 -0.00579,-0.0104 -0.014605,-0.0177 -0.027071,-0.0171 z"
       id="path5217"
       inkscape:connector-curvature="0" />
    <path
       style="fill:#d38d5f;fill-opacity:1;stroke-width:0.00417609"
       d="m 7.3550655,292.55092 c -0.069359,0.0204 -0.1390472,0.0503 -0.2126054,0.0489 -0.02199,-0.005 -0.051872,-0.0222 -0.066026,0.006 -0.00459,0.0356 0.01375,0.0707 0.018931,0.10588 0.026302,0.10448 0.050172,0.21018 0.079512,0.31352 0.013242,0.0314 0.058352,0.009 0.049979,-0.0209 0.00151,-0.0287 -0.00868,-0.0745 0.027495,-0.0858 0.060427,-0.0274 0.1276064,-0.0397 0.1853708,-0.0725 0.022712,-0.0238 -0.00161,-0.0576 -0.0037,-0.085 -0.016118,-0.0647 -0.030846,-0.12983 -0.049185,-0.19393 -0.00641,-0.011 -0.016473,-0.0187 -0.029771,-0.0165 z"
       id="path5219"
       inkscape:connector-curvature="0" />
    <path
       style="fill:#d38d5f;fill-opacity:1;stroke-width:0.00417609"
       d="m 7.6117804,292.44347 c -0.078714,0.0363 -0.1594625,0.0671 -0.2388124,0.10118 -0.028298,0.0224 2.646e-4,0.0603 0.00238,0.0891 0.018243,0.0666 0.029826,0.13569 0.055045,0.19998 0.023641,0.0263 0.057478,-0.002 0.084162,-0.008 0.036887,-0.0162 0.079068,-0.0232 0.1117468,-0.0469 0.00851,-0.0381 0.013036,-0.0765 0.018775,-0.11564 0.00436,-0.0663 0.00402,-0.13309 0.00164,-0.19948 -0.00313,-0.0156 -0.020309,-0.024 -0.034942,-0.0203 z"
       id="path5221"
       inkscape:connector-curvature="0" />
    <path
       style="fill:none;stroke:#000000;stroke-width:0.26458332px;stroke-linecap:butt;stroke-linejoin:miter;stroke-opacity:1"
       d="M 9.2094486,291.52006 C 9.0325358,291.4316 8.8567759,291.34372 8.768529,291.23761 8.680282,291.1315 8.680282,291.07882 8.680282,290.99089"
       id="path5231"
       inkscape:connector-curvature="0"
       inkscape:path-effect="#path-effect5233"
       inkscape:original-d="m 9.2094486,291.52006 c -0.1652968,-0.11169 -0.3525131,-0.17666 -0.5291666,-0.26459 -0.038147,-0.12397 2.645e-4,-0.17665 0,-0.26458" />
    <path
       style="fill:none;stroke:#000000;stroke-width:0.26458332px;stroke-linecap:butt;stroke-linejoin:miter;stroke-opacity:1"
       d="m 8.9448653,290.19714 c 0,0.18459 0,0.35251 0.044173,0.48501 0.044173,0.1325 0.1322149,0.22055 0.1763126,0.35408 0.044098,0.13354 0.044098,0.30717 0.044098,0.48383"
       id="path5239"
       inkscape:connector-curvature="0"
       inkscape:path-effect="#path-effect5241"
       inkscape:original-d="m 8.9448653,290.19714 c -0.0023,0.18459 2.646e-4,0.35251 0,0.52917 0.088591,0.0881 0.1766535,0.17612 0.2645833,0.26458 -0.00387,0.17888 2.646e-4,0.35251 0,0.52917" />
    <path
       style="fill:#d38d5f;fill-opacity:1;stroke-width:0.00295294"
       d="m 9.0598251,290.17425 c -0.019219,0.0197 -0.00893,0.0501 -0.013242,0.0749 -0.0057,0.16922 -0.024244,0.33649 -0.062565,0.5019 -0.012563,0.0579 -0.028542,0.11523 -0.044555,0.17207 -0.00119,0.0249 0.020286,0.0435 0.029932,0.0654 0.040174,0.0673 0.06303,0.14361 0.070203,0.22146 0.0018,0.0145 0.00338,0.029 0.0047,0.0436 -0.053125,-0.031 -0.1028829,-0.0675 -0.1487543,-0.10847 -0.019764,-0.0152 -0.043494,0.002 -0.047091,0.0239 -0.024717,0.052 -0.044258,0.10643 -0.07269,0.15628 -0.00921,0.0142 -0.024868,0.0352 -0.044142,0.0244 -0.024905,-0.0132 -0.051901,0.0211 -0.032886,0.042 0.067039,0.0643 0.1472457,0.11316 0.2273684,0.15939 0.022839,0.0103 0.049608,0.0365 0.075354,0.0191 0.02168,-0.0237 0.030773,-0.0564 0.04636,-0.0842 0.090829,-0.18758 0.1645599,-0.38332 0.2289386,-0.58121 0.00185,-0.0249 -0.018862,-0.0447 -0.028488,-0.0666 -0.047828,-0.0876 -0.1107395,-0.17151 -0.1253712,-0.27281 -0.020857,-0.12132 -0.019389,-0.24606 -0.021074,-0.36989 -0.00175,-0.0211 -0.023908,-0.0324 -0.041993,-0.0212 z"
       id="path5243"
       inkscape:connector-curvature="0" />
    <path
       style="fill:#d38d5f;fill-opacity:1;stroke-width:0.00295294"
       d="m 8.9395908,290.93969 c -0.019423,0.0213 -0.021355,0.0526 -0.032989,0.0783 -0.01316,0.0404 -0.030763,0.0777 -0.042787,0.1182 -0.00257,0.026 0.02756,0.0367 0.043116,0.0527 0.040286,0.0318 0.081482,0.0634 0.1267619,0.0876 0.023781,0.007 0.040777,-0.0188 0.035135,-0.0402 -0.00826,-0.0847 -0.025403,-0.17027 -0.068281,-0.24489 -0.01375,-0.0199 -0.019188,-0.0529 -0.047316,-0.0561 -0.00455,0.001 -0.00909,0.003 -0.013639,0.004 z"
       id="path5245"
       inkscape:connector-curvature="0" />
    <path
       style="fill:#c83737;fill-opacity:1;stroke-width:0.04464286"
       d="m 26.071362,9.6313215 c -0.320089,0.088138 -0.442085,0.4670845 -0.633109,0.7045205 -0.16751,0.193681 -0.185889,0.508712 0.05467,0.653512 0.954693,0.697953 2.001135,1.275163 3.086961,1.742695 1.463297,0.590482 3.084712,0.988111 4.660842,0.676564 1.072211,-0.298158 1.773654,-1.298674 2.10561,-2.310165 0.05837,-0.255707 0.313191,-0.587236 0.101159,-0.829571 -0.359306,-0.206936 -0.778736,-0.3434402 -1.191668,-0.3820798 -0.242636,0.1302268 -0.267147,0.4704338 -0.381382,0.7018168 -0.215672,0.552261 -0.517408,1.25458 -1.18818,1.335886 -1.802013,0.161539 -3.562821,-0.543062 -5.100552,-1.433958 C 27.076826,10.228651 26.63579,9.8288052 26.097084,9.6314959 l -0.01587,-6.103e-4 z"
       id="path5340"
       inkscape:connector-curvature="0"
       transform="matrix(0.26458333,0,0,0.26458333,0,284.29998)" />
  </g>
  <g
     inkscape:groupmode="layer"
     id="layer3"
     inkscape:label="color"
     style="display:inline">
    <path
       style="fill:#d38d5f;stroke-width:0.01181176"
       d="M 6.5206515,3.3864368 C 5.7382873,3.3992754 4.9714973,3.7983417 4.5215403,4.44027 4.2262404,4.8550126 4.0492902,5.3609216 4.0602871,5.8727628 c 0.00377,0.1445125 -0.012692,0.2976584 0.035592,0.434788 0.1269476,0.03925 0.260768,0.071219 0.3851915,0.1240581 0.1056293,0.03219 0.2216396,0.1307475 0.3320672,0.059313 C 4.9301445,6.4217947 5.0636025,6.3355262 5.0804707,6.1872302 5.1261288,5.9427412 5.078698,5.683531 5.1648373,5.4467808 5.2048386,5.3293566 5.3300318,5.2305477 5.4572935,5.2771942 5.5566135,5.3124192 5.6252938,5.4042546 5.6866539,5.4861838 5.8889286,5.8527955 6.017967,6.2600615 6.0404351,6.6761193 6.0630891,6.9414176 5.9403377,7.200764 5.7673756,7.3981111 5.7081476,7.4796801 5.615912,7.5359646 5.5674289,7.6235351 c 0.050144,0.1879089 0.068347,0.3767407 0.075254,0.5706554 0.032129,0.079768 0.1395124,0.080458 0.2104892,0.1084051 0.2113267,0.057552 0.4271063,0.1051946 0.6475011,0.098393 0.090246,-0.00161 0.1824537,0.010089 0.2716011,-0.00512 0.073585,-0.049127 -0.006,-0.1336387 -0.020497,-0.1943717 C 6.5663159,7.7512508 6.3287595,7.3043841 6.3264047,6.8072312 c -0.00459,-0.3016234 0.033158,-0.605863 0.1105739,-0.8973013 0.00816,-0.057369 0.074236,-0.013827 0.1084281,-0.015248 0.03774,0.01733 0.1075282,0.00929 0.1289603,0.046509 -0.010676,0.1966248 -0.065844,0.3891436 -0.077042,0.5873594 -0.035926,0.3161829 0.01062,0.6386711 0.1326259,0.932461 0.1116835,0.2838799 0.2312193,0.5667472 0.3589522,0.8425336 0.058156,0.049706 0.1461688,0.00702 0.2134246,-0.00849 C 7.5215062,8.2222049 7.7314316,8.1193547 7.9322033,8.0081633 7.9778373,7.9507598 7.9272688,7.8693306 7.910518,7.8061325 7.8051943,7.5336392 7.6502754,7.2843469 7.5280432,7.0198895 7.5924561,6.9733282 7.6646561,6.9195529 7.7431466,6.9063629 c 0.149843,0.2329418 0.274093,0.482732 0.386235,0.7358354 0.018524,0.053145 0.046616,0.1538401 0.1225931,0.112627 C 8.3708748,7.641709 8.4863281,7.5213829 8.5842266,7.3896527 8.5965852,7.3099927 8.5096852,7.2574168 8.475617,7.1926225 8.164857,6.78493 7.899029,6.3328677 7.7520974,5.8414592 7.6320811,5.4307055 7.6585596,4.9931238 7.7106179,4.5734949 c 0.019333,-0.091611 0.017769,-0.1927914 0.052438,-0.2780607 0.08064,1.637e-4 0.1639001,0.017308 0.2396495,0.041318 -0.00498,0.185594 -0.051506,0.3691349 -0.060449,0.5553005 -0.039881,0.4045172 0.00683,0.8209518 0.1734434,1.1942741 C 8.2609407,6.4381041 8.4823636,6.7512782 8.702367,7.0593852 8.773369,7.1243152 8.8145299,7.0118722 8.8358953,6.958639 9.1766837,6.2435825 9.1472059,5.3670668 8.7560507,4.6778167 8.489052,4.2027397 8.0693879,3.8089583 7.5633141,3.6002267 7.2357128,3.4572768 6.8786102,3.3798495 6.5206515,3.3864368 Z"
       id="path4758"
       inkscape:connector-curvature="0" />
    <path
       style="fill:#d38d5f;stroke-width:0.01181176"
       d="m 5.4213969,5.6444891 c -0.063216,0.046576 -0.032457,0.1416052 -0.046878,0.2092666 -0.014261,0.2217584 0.00257,0.4795721 -0.164188,0.6522765 -0.054629,0.068006 -0.131496,0.1140616 -0.191272,0.1748232 -0.028822,0.083321 0.072972,0.1361979 0.1118658,0.196071 0.1174269,0.124314 0.2171245,0.2651358 0.3033551,0.4112112 0.067074,0.056156 0.1143828,-0.05156 0.1578811,-0.09095 C 5.7447312,7.0341662 5.7993447,6.8018776 5.7694878,6.5841142 5.7302503,6.2660398 5.638228,5.9513825 5.4896835,5.6671207 5.4743059,5.6411439 5.4485021,5.6398343 5.4213969,5.6444891 Z"
       id="path4760"
       inkscape:connector-curvature="0" />
    <path
       style="fill:#d38d5f;stroke-width:0.01181176"
       d="M 2.3807696,5.8964811 C 2.2090431,6.1265186 2.0395572,6.3719186 1.9661122,6.6533331 1.9269177,6.8421596 2.0048654,7.0323625 2.0810691,7.201703 2.1104606,7.2645974 2.1894221,7.2286595 2.2061538,7.1748036 2.3262485,6.9731617 2.5062905,6.8202254 2.6618047,6.6500428 2.6875513,6.5793268 2.615683,6.5117162 2.6003713,6.4424057 2.5294445,6.274811 2.4981477,6.0935481 2.4621419,5.9174227 2.451884,5.8820598 2.4077248,5.8772428 2.3807696,5.8964811 Z"
       id="path4762"
       inkscape:connector-curvature="0" />
    <path
       style="fill:#d38d5f;stroke-width:0.01181176"
       d="M 3.7317852,6.5561168 C 3.4124432,6.5707509 3.0970784,6.6754928 2.8422584,6.8705357 2.4333693,7.1685002 2.1799508,7.6693733 2.1982002,8.1767008 c 0.00987,0.6006062 0.3845883,1.185297 0.9425162,1.4192054 0.2405422,0.1119124 0.5087101,0.15876 0.772882,0.132013 C 4.377753,9.6972418 4.8156212,9.43557 5.0858693,9.0604398 5.2032075,8.87686 5.3028911,8.674945 5.3432363,8.4597936 5.3339997,8.3488397 5.1996118,8.3248264 5.1249956,8.2678987 4.5222816,7.9065892 4.0740219,7.2938769 3.8821035,6.6192477 3.872052,6.533212 3.7953667,6.5479975 3.7317852,6.5561168 Z"
       id="path4764"
       inkscape:connector-curvature="0" />
    <path
       style="fill:#d38d5f;stroke-width:0.01181176"
       d="m 4.2325621,6.6299403 c -0.083184,0.019336 -0.03395,0.1127683 -0.012343,0.1623425 0.1985732,0.5199298 0.5726977,0.9727356 1.0527688,1.255368 0.069777,0.029481 0.1042022,-0.056964 0.088104,-0.11235 -0.073111,-0.6003862 -0.525972,-1.1369297 -1.1071904,-1.3049684 -0.00707,-9.525e-4 -0.014243,-0.00138 -0.021339,-3.969e-4 z"
       id="path4766"
       inkscape:connector-curvature="0" />
    <path
       style="fill:#d38d5f;stroke-width:0.01181176"
       d="m 9.8833801,2.7174577 c -0.04928,0.2145207 -0.08465,0.4373925 -0.1935752,0.6327811 -0.1134887,0.2295139 -0.2835751,0.4804877 -0.55368,0.5296617 -0.1771317,0.024574 -0.3554206,0.00752 -0.5333286,-0.00918 -0.077433,0.01218 -0.048916,0.1027135 -0.00628,0.1378364 0.169395,0.1850238 0.3109884,0.3967449 0.4358606,0.6159475 0.062339,0.054427 0.1398743,-0.016576 0.2055225,-0.031693 C 9.4463573,4.5169106 9.6495518,4.3960725 9.7636946,4.199187 9.9131041,3.9503496 10.042409,3.6841047 10.11168,3.4012245 10.15038,3.1651024 10.08345,2.9199046 9.9673871,2.7154398 c -0.01951,-0.031236 -0.06329,-0.023798 -0.08401,0.00202 z"
       id="path4768"
       inkscape:connector-curvature="0" />
    <path
       style="fill:#d38d5f;stroke-width:0.01181176"
       d="M 9.2591331,6.5779179 C 9.1780709,6.8266323 9.0847039,7.072335 8.959479,7.3028873 8.944186,7.3838013 9.043908,7.422833 9.0850481,7.4810789 c 0.189534,0.2035628 0.4441365,0.3255777 0.6513695,0.5073698 0.1397265,0.114006 0.1905355,0.2994951 0.1794265,0.4738811 -0.0066,0.3527161 -0.102929,0.7041076 -0.08756,1.0591837 -0.0034,0.053575 0.03043,0.1394191 0.09724,0.1008843 C 10.117132,9.4593171 10.20353,9.2096433 10.277765,8.9767148 10.372485,8.6363024 10.429044,8.2746363 10.371145,7.9228892 10.315379,7.6492899 10.061649,7.4896033 9.8653451,7.3206779 9.6688909,7.1653773 9.504599,6.9674653 9.4121554,6.7329701 9.377381,6.6781651 9.3755882,6.5894045 9.3144146,6.5600217 c -0.024167,-0.010009 -0.036575,0.00532 -0.055281,0.017896 z"
       id="path4770"
       inkscape:connector-curvature="0" />
    <path
       style="fill:#d38d5f;stroke-width:0.01181176"
       d="M 7.9474054,8.3012576 C 7.7274496,8.4321782 7.4872329,8.5091127 7.2495198,8.5907149 c -0.085142,0.032283 -0.040766,0.1298594 -0.03474,0.1946442 0.068072,0.4568505 -0.0053,0.9154782 -0.034955,1.3750569 -0.00292,0.08279 -0.0078,0.176328 0.034237,0.249863 0.069502,0.05476 0.1383903,-0.03627 0.1834052,-0.08155 C 7.6372333,10.054462 7.7606149,9.7019678 7.8704199,9.3603513 7.970866,9.0298666 8.0268857,8.6834398 8.0222717,8.3386676 c -0.00277,-0.036353 -0.044666,-0.050449 -0.074866,-0.03741 z"
       id="path4772"
       inkscape:connector-curvature="0" />
    <path
       style="fill:#d38d5f;stroke-width:0.01181176"
       d="M 5.6456125,8.5239045 C 5.5700872,8.5537183 5.5791007,8.6582139 5.545351,8.7222592 5.4402606,9.0458258 5.2375311,9.3358739 4.9797248,9.5616088 4.9240608,9.6223138 4.8183088,9.6619642 4.8430312,9.761783 c 0.0039,0.1311553 -0.01342,0.265425 0.00884,0.394912 0.053317,0.07302 0.1271942,-0.01207 0.1729546,-0.04946 C 5.2678777,9.8926374 5.4012917,9.5876993 5.5471338,9.3050693 5.6471561,9.0881131 5.7586084,8.8744435 5.8351073,8.6479049 5.8494742,8.5528139 5.7224485,8.54368 5.6565699,8.5237894 Z"
       id="path4774"
       inkscape:connector-curvature="0" />
    <ellipse
       style="fill:#d38d5f;stroke-width:0.26458332"
       id="path5028"
       cx="4.0500736"
       cy="8.0138283"
       rx="1.4552083"
       ry="1.3229166" />
  </g>
  <g
     inkscape:groupmode="layer"
     id="layer4"
     inkscape:label="details"
     style="display:inline">
    <circle
       style="fill:#1a1a1a;fill-opacity:1;stroke-width:0.26458332"
       id="path5264"
       cx="3.138206"
       cy="7.9630375"
       r="0.39687499" />
    <circle
       style="fill:#1a1a1a;fill-opacity:1;stroke-width:0.26458332"
       id="path5266"
       cx="4.4741154"
       cy="7.9630375"
       r="0.39687499" />
    <circle
       style="fill:#f2f2f2;fill-opacity:1;stroke-width:0.26458332"
       id="path5268"
       cx="3.2733309"
       cy="7.8320889"
       r="0.13229166" />
    <circle
       style="fill:#f2f2f2;fill-opacity:1;stroke-width:0.26458332"
       id="path5268-0"
       cx="4.5678453"
       cy="7.8286295"
       r="0.13229166" />
    <path
       style="fill:#1a1a1a;fill-opacity:1;stroke-width:0.00417609"
       d="M 4.0492797,9.2037088 3.9177821,9.0721614 3.8133222,9.1765607 3.7088626,9.2809602 H 3.520947 3.3330315 L 3.182731,9.1306163 3.0324302,8.9802721 3.1253232,8.8873791 3.2182162,8.7944861 3.3299638,8.906176 3.4417111,9.0178659 h 0.079365 0.079365 l 0.067954,-0.068048 0.067955,-0.068048 -0.035529,-0.00514 C 3.5904314,8.860672 3.4855172,8.8070357 3.4357499,8.741119 3.3670289,8.650099 3.3785479,8.5481787 3.4666539,8.4676607 c 0.049945,-0.045643 0.1222063,-0.080447 0.2025957,-0.097577 0.057698,-0.012295 0.1668848,-0.013478 0.2222087,-0.00241 0.1332304,0.026659 0.2334887,0.092924 0.273177,0.1805538 0.016169,0.035699 0.018714,0.090311 0.00599,0.1285423 -0.015933,0.047877 -0.062028,0.1032213 -0.1091634,0.1310647 -0.00715,0.00423 -0.012189,0.010732 -0.012189,0.015745 0,0.00547 0.024021,0.032532 0.066823,0.07527 l 0.066823,0.066725 0.085618,-0.085541 0.085617,-0.085541 0.091864,0.091864 0.091864,0.091864 -0.1785525,0.1785162 -0.1785522,0.178516 z"
       id="path5309"
       inkscape:connector-curvature="0" />
    <ellipse
       style="fill:#f2f2f2;fill-opacity:1;stroke-width:0.14341603"
       id="path5268-0-8"
       cx="3.9753158"
       cy="8.5178642"
       rx="0.069650367"
       ry="0.073826447" />
  </g>
</svg>
